<svg width="26" height="15" viewBox="0 0 26 15" fill="none" xmlns="http://www.w3.org/2000/svg">
<rect width="2282" height="2587" transform="translate(-1214 -801)" fill="white"/>
<g clip-path="url(#clip0_735_21573)">
<rect x="-6.5" y="-7.5" width="39" height="31" rx="3.5" stroke="#2A6648"/>
<path d="M5.67036 10.5253C5.74722 10.6694 5.81311 11.0575 6.14253 11.0575H14.1037C14.3343 11.0575 14.5539 10.9023 14.6198 10.6805L16.8818 3.55193C16.9368 3.38563 16.9038 3.20824 16.805 3.06412C16.7062 2.92 16.5414 2.84239 16.3657 2.84239H4.15499C4.13303 2.84239 4.11107 2.84239 4.08911 2.84239L3.58399 1.37898C3.52908 1.22377 3.41927 1.10182 3.26554 1.04638L0.739934 0.0375137C0.465411 -0.073351 0.146965 0.0707731 0.0371565 0.347935C-0.0726525 0.625097 0.0700991 0.946605 0.344622 1.05747L2.65061 1.96656L5.5276 10.1262" fill="#2A6648"/>
<path d="M22.7779 5.83617L21.3174 3.74082C21.2625 3.66322 21.1747 3.60779 21.0759 3.60779H18.8028C18.6381 3.60779 18.5063 3.74082 18.5063 3.90712V6.00246C18.5063 6.16876 18.6381 6.3018 18.8028 6.3018H22.5363C22.7669 6.31289 22.9097 6.03572 22.7779 5.83617ZM25.8196 11.5346V12.4548C25.8196 12.6211 25.6878 12.7541 25.5231 12.7541H23.0963C22.9207 11.5568 21.8994 10.6255 20.6586 10.6255C19.4178 10.6255 18.3965 11.5568 18.2208 12.7541H13.3343C13.2465 12.1444 12.939 11.6122 12.4998 11.2353H17.1337V2.56566C17.1337 2.23306 17.3973 1.9559 17.7377 1.9559H20.5707C21.3723 1.9559 22.1081 2.35502 22.5583 3.0202L24.3701 5.75856C24.6337 6.15768 24.7764 6.63439 24.7764 7.11111V11.2242H25.5012C25.6769 11.2353 25.8196 11.3683 25.8196 11.5346ZM21.581 13.12C21.581 12.5989 21.1637 12.1776 20.6476 12.1776C20.1315 12.1776 19.7142 12.5989 19.7142 13.12C19.7142 13.641 20.1315 14.0623 20.6476 14.0623C21.1637 14.0623 21.581 13.641 21.581 13.12ZM22.5144 13.12C22.5144 14.1621 21.6798 15.0047 20.6476 15.0047C19.6154 15.0047 18.7809 14.1621 18.7809 13.12C18.7809 12.0779 19.6154 11.2353 20.6476 11.2353C21.6798 11.2353 22.5144 12.0779 22.5144 13.12ZM9.28239 11.2353H5.09867C4.93396 11.2353 4.80219 11.3683 4.80219 11.5346V12.4548C4.80219 12.6211 4.93396 12.7541 5.09867 12.7541H8.44784C8.53569 12.1444 8.84315 11.6122 9.28239 11.2353ZM11.819 13.12C11.819 12.5989 11.4017 12.1776 10.8856 12.1776C10.3695 12.1776 9.95222 12.5989 9.95222 13.12C9.95222 13.641 10.3695 14.0623 10.8856 14.0623C11.4017 14.0623 11.819 13.641 11.819 13.12ZM12.7523 13.12C12.7523 14.1621 11.9178 15.0047 10.8856 15.0047C9.85339 15.0047 9.01885 14.1621 9.01885 13.12C9.01885 12.0779 9.85339 11.2353 10.8856 11.2353C11.9178 11.2353 12.7523 12.0779 12.7523 13.12Z" fill="#2A6648"/>
<path d="M7.5 6L9.30769 8L12 5" stroke="white" stroke-linecap="round" stroke-linejoin="round"/>
</g>
<defs>
<clipPath id="clip0_735_21573">
<rect width="40" height="32" fill="white" transform="translate(-7 -8)"/>
</clipPath>
</defs>
</svg>
