<svg width="26" height="16" viewBox="0 0 26 16" fill="none" xmlns="http://www.w3.org/2000/svg">
<path d="M12.4675 9.95991V8.77365H14.0927L13.7194 9.95991H12.4675ZM6.12057 8.77365H7.78967V9.95991H6.52687L6.12057 8.77365ZM7.78967 3.92887V5.15946H4.87973L4.45148 3.92887H7.78967ZM8.87678 3.92887H11.3804V5.15946H8.87678V3.92887ZM5.26406 6.25702H7.78967V7.67609H5.74722L5.26406 6.25702ZM11.3804 9.95991H8.87678V8.77365H11.3804V9.95991ZM8.87678 6.25702H11.3804V7.67609H8.87678V6.25702ZM14.4331 7.67609H12.4565V6.25702H14.8833L14.4331 7.67609ZM15.2347 5.17055H12.4675V3.92887H15.63L15.2347 5.17055ZM5.67036 10.5253C5.74722 10.6694 5.81311 11.0575 6.14253 11.0575H14.1037C14.3343 11.0575 14.5539 10.9023 14.6198 10.6805L16.8818 3.55193C16.9368 3.38563 16.9038 3.20825 16.805 3.06412C16.7062 2.92 16.5414 2.84239 16.3657 2.84239H4.15499C4.13303 2.84239 4.11107 2.84239 4.08911 2.84239L3.58399 1.37898C3.52908 1.22377 3.41927 1.10182 3.26554 1.04638L0.739934 0.0375137C0.465411 -0.073351 0.146965 0.0707731 0.0371565 0.347935C-0.0726525 0.625097 0.0700992 0.946604 0.344622 1.05747L2.65061 1.96656L5.5276 10.1262" fill="#C4C4C4"/>
<path d="M22.778 5.83632L21.3175 3.74098C21.2626 3.66337 21.1748 3.60794 21.0759 3.60794H18.8029C18.6382 3.60794 18.5064 3.74098 18.5064 3.90727V6.00262C18.5064 6.16891 18.6382 6.30195 18.8029 6.30195H22.5364C22.767 6.31304 22.9097 6.03588 22.778 5.83632ZM25.8197 11.5348V12.4549C25.8197 12.6212 25.6879 12.7543 25.5232 12.7543H23.0964C22.9207 11.5569 21.8995 10.6257 20.6587 10.6257C19.4178 10.6257 18.3966 11.5569 18.2209 12.7543H13.3344C13.2466 12.1445 12.9391 11.6124 12.4999 11.2354H17.1338V2.56581C17.1338 2.23322 17.3973 1.95605 17.7377 1.95605H20.5708C21.3724 1.95605 22.1081 2.35517 22.5583 3.02036L24.3702 5.75871C24.6337 6.15783 24.7765 6.63455 24.7765 7.11126V11.2243H25.5012C25.6769 11.2354 25.8197 11.3685 25.8197 11.5348ZM21.581 13.1201C21.581 12.5991 21.1638 12.1778 20.6477 12.1778C20.1316 12.1778 19.7143 12.5991 19.7143 13.1201C19.7143 13.6412 20.1316 14.0625 20.6477 14.0625C21.1638 14.0625 21.581 13.6412 21.581 13.1201ZM22.5144 13.1201C22.5144 14.1623 21.6799 15.0048 20.6477 15.0048C19.6155 15.0048 18.7809 14.1623 18.7809 13.1201C18.7809 12.078 19.6155 11.2354 20.6477 11.2354C21.6799 11.2354 22.5144 12.078 22.5144 13.1201ZM9.28245 11.2354H5.09873C4.93402 11.2354 4.80225 11.3685 4.80225 11.5348V12.4549C4.80225 12.6212 4.93402 12.7543 5.09873 12.7543H8.4479C8.53575 12.1445 8.84321 11.6124 9.28245 11.2354ZM11.819 13.1201C11.819 12.5991 11.4018 12.1778 10.8857 12.1778C10.3696 12.1778 9.95228 12.5991 9.95228 13.1201C9.95228 13.6412 10.3696 14.0625 10.8857 14.0625C11.4018 14.0625 11.819 13.6412 11.819 13.1201ZM12.7524 13.1201C12.7524 14.1623 11.9179 15.0048 10.8857 15.0048C9.85346 15.0048 9.01891 14.1623 9.01891 13.1201C9.01891 12.078 9.85346 11.2354 10.8857 11.2354C11.9179 11.2354 12.7524 12.078 12.7524 13.1201Z" fill="#C4C4C4"/>
</svg>
