<svg width="35" height="20" viewBox="0 0 35 20" fill="none" xmlns="http://www.w3.org/2000/svg">
<g clip-path="url(#clip0_9536_2186)">
<path d="M16.7832 13.2799V11.6982H18.9709L18.4684 13.2799H16.7832ZM8.23923 11.6982H10.4861V13.2799H8.78616L8.23923 11.6982ZM10.4861 5.23849V6.87929H6.56887L5.99237 5.23849H10.4861ZM11.9495 5.23849H15.3198V6.87929H11.9495V5.23849ZM7.08624 8.3427H10.4861V10.2348H7.73664L7.08624 8.3427ZM15.3198 13.2799H11.9495V11.6982H15.3198V13.2799ZM11.9495 8.3427H15.3198V10.2348H11.9495V8.3427ZM19.4292 10.2348H16.7684V8.3427H20.0352L19.4292 10.2348ZM20.5083 6.89407H16.7832V5.23849H21.0404L20.5083 6.89407ZM7.63317 14.0338C7.73664 14.2259 7.82534 14.7433 8.2688 14.7433H18.9857C19.2961 14.7433 19.5918 14.5363 19.6805 14.2407L22.7256 4.7359C22.7995 4.51417 22.7551 4.27766 22.6221 4.08549C22.4891 3.89333 22.2673 3.78986 22.0308 3.78986H5.59326C5.56369 3.78986 5.53413 3.78986 5.50457 3.78986L4.8246 1.83864C4.75069 1.63169 4.60287 1.46909 4.39592 1.39518L0.996065 0.0500183C0.626515 -0.0978014 0.197838 0.0943642 0.0500183 0.463913C-0.0978014 0.833462 0.0943642 1.26214 0.463914 1.40996L3.56813 2.62208L7.441 13.5016" fill="white"/>
<path d="M30.6624 7.78111L28.6964 4.98732C28.6225 4.88384 28.5043 4.80993 28.3712 4.80993H25.3114C25.0896 4.80993 24.9123 4.98732 24.9123 5.20905V8.00284C24.9123 8.22457 25.0896 8.40195 25.3114 8.40195H30.3372C30.6477 8.41673 30.8398 8.04718 30.6624 7.78111ZM34.757 15.379V16.6059C34.757 16.8277 34.5797 17.0051 34.3579 17.0051H31.0911C30.8546 15.4086 29.4799 14.1669 27.8095 14.1669C26.1392 14.1669 24.7644 15.4086 24.5279 17.0051H17.9499C17.8317 16.192 17.4178 15.4825 16.8265 14.9799H23.0645V3.42043C23.0645 2.97697 23.4193 2.60742 23.8775 2.60742H27.6913C28.7703 2.60742 29.7607 3.13957 30.3668 4.02649L32.8058 7.67764C33.1606 8.20979 33.3528 8.84541 33.3528 9.48104V14.9651H34.3284C34.5649 14.9799 34.757 15.1573 34.757 15.379ZM29.0512 17.4929C29.0512 16.7981 28.4895 16.2364 27.7947 16.2364C27.1 16.2364 26.5383 16.7981 26.5383 17.4929C26.5383 18.1876 27.1 18.7493 27.7947 18.7493C28.4895 18.7493 29.0512 18.1876 29.0512 17.4929ZM30.3077 17.4929C30.3077 18.8824 29.1842 20.0058 27.7947 20.0058C26.4052 20.0058 25.2818 18.8824 25.2818 17.4929C25.2818 16.1034 26.4052 14.9799 27.7947 14.9799C29.1842 14.9799 30.3077 16.1034 30.3077 17.4929ZM12.4954 14.9799H6.86347C6.64174 14.9799 6.46436 15.1573 6.46436 15.379V16.6059C6.46436 16.8277 6.64174 17.0051 6.86347 17.0051H11.372C11.4902 16.192 11.9041 15.4825 12.4954 14.9799ZM15.91 17.4929C15.91 16.7981 15.3483 16.2364 14.6536 16.2364C13.9588 16.2364 13.3971 16.7981 13.3971 17.4929C13.3971 18.1876 13.9588 18.7493 14.6536 18.7493C15.3483 18.7493 15.91 18.1876 15.91 17.4929ZM17.1665 17.4929C17.1665 18.8824 16.0431 20.0058 14.6536 20.0058C13.2641 20.0058 12.1406 18.8824 12.1406 17.4929C12.1406 16.1034 13.2641 14.9799 14.6536 14.9799C16.0431 14.9799 17.1665 16.1034 17.1665 17.4929Z" fill="white"/>
</g>
<defs>
<clipPath id="clip0_9536_2186">
<rect width="35" height="20" fill="white"/>
</clipPath>
</defs>
</svg>
